<?xml version="1.0" standalone="no"?>
<!DOCTYPE svg PUBLIC "-//W3C//DTD SVG 20010904//EN"
 "http://www.w3.org/TR/2001/REC-SVG-20010904/DTD/svg10.dtd">
<svg version="1.0" xmlns="http://www.w3.org/2000/svg"
 width="1200.000000pt" height="1200.000000pt" viewBox="0 0 1200.000000 1200.000000"
 preserveAspectRatio="xMidYMid meet">
<metadata>
Created by potrace 1.14, written by Peter Selinger 2001-2017
</metadata>
<g transform="translate(0.000000,1200.000000) scale(0.100000,-0.100000)"
fill="#000000" stroke="none">
<path d="M5827 11624 c-1 -1 -60 -5 -132 -9 -71 -4 -146 -8 -165 -10 -82 -6
-177 -16 -200 -20 -14 -2 -47 -7 -75 -10 -102 -13 -122 -16 -205 -30 -85 -15
-118 -21 -155 -29 -11 -2 -56 -12 -100 -21 -44 -9 -132 -30 -195 -47 -63 -16
-119 -31 -125 -32 -13 -3 -172 -52 -250 -77 -62 -20 -265 -94 -300 -109 -11
-5 -51 -22 -90 -38 -389 -162 -783 -383 -1125 -630 -129 -93 -325 -250 -445
-356 -105 -92 -393 -381 -480 -480 -621 -712 -1040 -1518 -1256 -2416 -25
-105 -66 -301 -74 -355 -3 -23 -7 -52 -10 -65 -8 -43 -35 -252 -41 -325 -3
-38 -7 -81 -9 -94 -23 -142 -23 -716 0 -951 2 -25 7 -70 10 -100 5 -53 21
-179 31 -250 4 -34 28 -173 40 -235 3 -16 12 -61 20 -100 9 -38 17 -79 20 -90
4 -22 62 -243 88 -338 69 -252 226 -647 368 -932 195 -388 489 -828 757 -1135
36 -41 82 -93 101 -115 71 -82 368 -374 470 -461 137 -118 280 -232 410 -326
102 -74 444 -298 455 -298 3 0 49 -25 102 -56 83 -48 386 -199 478 -239 331
-141 685 -258 1005 -330 68 -16 263 -54 297 -59 22 -3 52 -7 65 -10 22 -5 40
-8 143 -21 28 -3 64 -8 81 -10 17 -3 57 -7 90 -10 32 -4 73 -8 89 -10 185 -22
753 -23 960 -1 17 2 62 7 100 10 134 14 160 17 185 21 14 2 84 13 155 25 874
139 1738 508 2460 1051 138 104 150 113 314 254 137 116 432 411 547 545 49
58 91 107 94 110 4 3 40 48 81 100 334 424 609 897 809 1394 41 102 150 401
148 409 0 1 10 36 23 77 12 41 23 80 25 85 1 6 11 44 22 85 12 41 24 86 26
100 3 14 15 66 26 115 11 50 22 101 25 115 3 14 7 36 10 50 11 54 34 198 40
240 9 78 16 124 20 140 2 8 7 51 10 95 4 44 8 96 10 115 23 217 23 774 0 949
-2 18 -7 65 -10 105 -3 39 -8 82 -10 96 -2 14 -13 89 -25 168 -11 78 -30 186
-41 240 -11 53 -23 111 -26 127 -5 32 -71 284 -97 375 -9 30 -18 62 -20 70
-12 43 -89 269 -102 297 -8 17 -14 34 -14 38 0 4 -6 21 -13 38 -8 18 -42 100
-77 182 -223 531 -562 1064 -964 1520 -105 118 -358 371 -472 471 -173 152
-222 192 -379 308 -71 53 -134 99 -140 104 -35 27 -307 198 -390 246 -55 31
-107 61 -115 66 -64 38 -353 180 -475 233 -169 73 -406 161 -540 201 -49 15
-101 31 -115 36 -38 14 -325 86 -410 104 -117 23 -271 50 -350 61 -25 3 -56 8
-70 10 -41 6 -101 13 -170 20 -36 4 -79 8 -95 10 -98 11 -649 27 -658 19z
m-776 -3024 c15 -63 30 -126 33 -140 2 -14 27 -123 55 -242 28 -119 53 -227
55 -240 3 -13 15 -63 27 -113 11 -49 23 -101 25 -115 3 -14 12 -52 21 -85 8
-33 16 -67 18 -75 2 -8 10 -45 19 -81 8 -37 17 -78 20 -90 2 -13 16 -73 31
-132 14 -60 30 -127 35 -150 10 -48 52 -230 180 -782 50 -214 102 -437 115
-495 13 -58 49 -213 80 -345 30 -132 57 -249 59 -260 2 -11 11 -48 20 -83 9
-34 21 -84 27 -110 14 -70 18 -88 44 -197 13 -55 40 -172 61 -260 l37 -159 22
94 c12 52 32 140 45 195 12 55 26 114 31 130 4 17 10 41 13 55 2 14 12 57 21
95 9 39 18 77 20 85 2 8 22 98 45 200 23 102 44 192 45 200 2 8 27 114 55 235
44 190 84 363 95 415 2 8 22 96 45 195 23 99 44 189 46 200 5 25 9 43 30 130
28 123 203 884 208 908 8 39 14 62 30 128 28 116 67 283 72 314 3 16 28 124
55 240 27 115 61 262 75 325 14 63 28 118 31 123 2 4 371 7 819 7 l814 0 0
-2720 0 -2720 -530 0 -530 0 2 2273 3 2272 -43 -190 c-24 -104 -45 -199 -47
-210 -1 -11 -8 -38 -13 -60 -6 -22 -13 -51 -15 -65 -3 -14 -12 -54 -21 -90 -9
-36 -45 -195 -81 -355 -35 -159 -94 -420 -130 -580 -36 -159 -68 -301 -71
-314 -3 -12 -12 -53 -20 -90 -9 -36 -18 -75 -20 -86 -2 -11 -24 -110 -49 -220
-26 -110 -48 -211 -51 -225 -3 -14 -34 -153 -70 -310 -36 -157 -68 -296 -70
-310 -5 -23 -20 -90 -30 -132 -7 -32 -14 -63 -18 -83 -2 -11 -14 -60 -25 -110
-17 -70 -68 -296 -96 -425 -2 -8 -26 -116 -55 -240 -28 -124 -53 -234 -55
-245 -12 -54 -16 -72 -19 -90 -2 -11 -10 -41 -16 -67 l-12 -48 -553 0 -553 0
-7 38 c-3 20 -17 82 -30 137 -47 205 -64 281 -70 314 -3 19 -8 37 -10 41 -2 4
-7 20 -9 36 -3 16 -8 40 -11 54 -3 14 -8 34 -10 45 -3 11 -27 121 -55 245 -28
124 -58 254 -66 290 -8 36 -21 97 -30 135 -8 39 -17 77 -19 85 -3 13 -28 127
-40 180 -14 66 -132 591 -155 690 -16 69 -31 136 -34 150 -2 14 -20 96 -40
183 -20 86 -39 174 -42 195 -3 20 -8 40 -9 43 -3 5 -49 200 -59 254 -3 11 -19
83 -36 160 -37 161 -34 149 -54 240 -8 39 -31 140 -51 225 -20 85 -40 175 -45
200 -5 25 -12 56 -15 70 -3 14 -8 36 -11 50 -3 14 -7 33 -10 42 -3 10 -7 30
-10 45 -3 16 -9 44 -14 63 -5 19 -11 46 -14 60 -2 14 -9 45 -15 70 -7 25 -14
54 -16 65 -3 11 -8 34 -10 50 -3 17 -9 43 -13 58 -4 14 -6 -995 -4 -2243 l2
-2270 -530 0 -530 0 0 2720 0 2720 827 -2 827 -3 27 -115z"/>
</g>
</svg>
